<mxfile host="app.diagrams.net" modified="2023-03-01T14:16:13.449Z" agent="5.0 (Windows NT 10.0; Win64; x64) AppleWebKit/537.36 (KHTML, like Gecko) Chrome/109.0.0.0 Safari/537.36 OPR/95.0.0.0" etag="T7uQW8BJmzHR_95mvJ9D" version="20.8.23" type="github">
  <diagram id="C5RBs43oDa-KdzZeNtuy" name="Page-1">
    <mxGraphModel dx="1331" dy="806" grid="1" gridSize="10" guides="1" tooltips="1" connect="1" arrows="1" fold="1" page="1" pageScale="1" pageWidth="827" pageHeight="1169" math="0" shadow="0">
      <root>
        <mxCell id="WIyWlLk6GJQsqaUBKTNV-0" />
        <mxCell id="WIyWlLk6GJQsqaUBKTNV-1" parent="WIyWlLk6GJQsqaUBKTNV-0" />
        <mxCell id="JHHzY5UkfTKHRlUcyAbI-2" style="edgeStyle=orthogonalEdgeStyle;rounded=0;orthogonalLoop=1;jettySize=auto;html=1;entryX=0.5;entryY=0;entryDx=0;entryDy=0;" edge="1" parent="WIyWlLk6GJQsqaUBKTNV-1" source="JHHzY5UkfTKHRlUcyAbI-0" target="JHHzY5UkfTKHRlUcyAbI-1">
          <mxGeometry relative="1" as="geometry" />
        </mxCell>
        <mxCell id="JHHzY5UkfTKHRlUcyAbI-0" value="START" style="ellipse;whiteSpace=wrap;html=1;" vertex="1" parent="WIyWlLk6GJQsqaUBKTNV-1">
          <mxGeometry x="340" y="20" width="120" height="80" as="geometry" />
        </mxCell>
        <mxCell id="JHHzY5UkfTKHRlUcyAbI-4" style="edgeStyle=orthogonalEdgeStyle;rounded=0;orthogonalLoop=1;jettySize=auto;html=1;entryX=0.5;entryY=0;entryDx=0;entryDy=0;" edge="1" parent="WIyWlLk6GJQsqaUBKTNV-1" source="JHHzY5UkfTKHRlUcyAbI-1" target="JHHzY5UkfTKHRlUcyAbI-3">
          <mxGeometry relative="1" as="geometry" />
        </mxCell>
        <mxCell id="JHHzY5UkfTKHRlUcyAbI-1" value="pobierz tablice a&lt;br&gt;i = 0&lt;br&gt;wynik = 0" style="rounded=0;whiteSpace=wrap;html=1;" vertex="1" parent="WIyWlLk6GJQsqaUBKTNV-1">
          <mxGeometry x="340" y="150" width="120" height="60" as="geometry" />
        </mxCell>
        <mxCell id="JHHzY5UkfTKHRlUcyAbI-6" style="edgeStyle=orthogonalEdgeStyle;rounded=0;orthogonalLoop=1;jettySize=auto;html=1;entryX=0.5;entryY=1;entryDx=0;entryDy=0;" edge="1" parent="WIyWlLk6GJQsqaUBKTNV-1" source="JHHzY5UkfTKHRlUcyAbI-3" target="JHHzY5UkfTKHRlUcyAbI-5">
          <mxGeometry relative="1" as="geometry">
            <Array as="points">
              <mxPoint x="260" y="310" />
            </Array>
          </mxGeometry>
        </mxCell>
        <mxCell id="JHHzY5UkfTKHRlUcyAbI-8" value="TAK" style="edgeLabel;html=1;align=center;verticalAlign=middle;resizable=0;points=[];" vertex="1" connectable="0" parent="JHHzY5UkfTKHRlUcyAbI-6">
          <mxGeometry x="-0.0182" y="-1" relative="1" as="geometry">
            <mxPoint x="4" y="1" as="offset" />
          </mxGeometry>
        </mxCell>
        <mxCell id="JHHzY5UkfTKHRlUcyAbI-9" style="edgeStyle=orthogonalEdgeStyle;rounded=0;orthogonalLoop=1;jettySize=auto;html=1;entryX=1;entryY=0.5;entryDx=0;entryDy=0;exitX=1;exitY=0.5;exitDx=0;exitDy=0;" edge="1" parent="WIyWlLk6GJQsqaUBKTNV-1" source="JHHzY5UkfTKHRlUcyAbI-3" target="JHHzY5UkfTKHRlUcyAbI-10">
          <mxGeometry relative="1" as="geometry">
            <mxPoint x="480" y="490" as="targetPoint" />
            <mxPoint x="480" y="310" as="sourcePoint" />
            <Array as="points">
              <mxPoint x="480" y="310" />
              <mxPoint x="480" y="430" />
            </Array>
          </mxGeometry>
        </mxCell>
        <mxCell id="JHHzY5UkfTKHRlUcyAbI-11" value="NIE" style="edgeLabel;html=1;align=center;verticalAlign=middle;resizable=0;points=[];" vertex="1" connectable="0" parent="JHHzY5UkfTKHRlUcyAbI-9">
          <mxGeometry x="-0.11" y="3" relative="1" as="geometry">
            <mxPoint as="offset" />
          </mxGeometry>
        </mxCell>
        <mxCell id="JHHzY5UkfTKHRlUcyAbI-3" value="i &amp;lt; długość tablicy" style="rhombus;whiteSpace=wrap;html=1;" vertex="1" parent="WIyWlLk6GJQsqaUBKTNV-1">
          <mxGeometry x="340" y="250" width="120" height="120" as="geometry" />
        </mxCell>
        <mxCell id="JHHzY5UkfTKHRlUcyAbI-7" style="edgeStyle=orthogonalEdgeStyle;rounded=0;orthogonalLoop=1;jettySize=auto;html=1;entryX=0;entryY=0.5;entryDx=0;entryDy=0;exitX=0.5;exitY=0;exitDx=0;exitDy=0;" edge="1" parent="WIyWlLk6GJQsqaUBKTNV-1" source="JHHzY5UkfTKHRlUcyAbI-5" target="JHHzY5UkfTKHRlUcyAbI-1">
          <mxGeometry relative="1" as="geometry" />
        </mxCell>
        <mxCell id="JHHzY5UkfTKHRlUcyAbI-5" value="wynik = wynik + a[i]&lt;br&gt;i = i + 1" style="rounded=0;whiteSpace=wrap;html=1;" vertex="1" parent="WIyWlLk6GJQsqaUBKTNV-1">
          <mxGeometry x="200" y="210" width="120" height="60" as="geometry" />
        </mxCell>
        <mxCell id="JHHzY5UkfTKHRlUcyAbI-10" value="STOP" style="ellipse;whiteSpace=wrap;html=1;" vertex="1" parent="WIyWlLk6GJQsqaUBKTNV-1">
          <mxGeometry x="340" y="390" width="120" height="80" as="geometry" />
        </mxCell>
      </root>
    </mxGraphModel>
  </diagram>
</mxfile>
